<svg version="1.2" baseProfile="tiny-ps" xmlns="http://www.w3.org/2000/svg" viewBox="0 0 78 34" width="78" height="34">
	<title>switch_button_border-svg</title>
	<style>
		tspan { white-space:pre }
		.shp0 { fill: #ffffff;stroke: #000000;stroke-width: 3 } 
		.shp1 { fill: #000000;stroke: #000000;stroke-width: 3 } 
	</style>
	<path id="Layer" class="shp0" d="M2.35 16.8C2.35 8.46 9.12 1.7 17.46 1.7L60.6 1.7C68.95 1.7 75.71 8.46 75.71 16.8L75.71 16.8C75.71 25.15 68.95 31.91 60.6 31.91L17.46 31.91C9.12 31.91 2.35 25.15 2.35 16.8L2.35 16.8Z" />
	<path id="Layer copy" class="shp1" d="M1.77 15.17C1.77 7.73 7.8 1.7 15.24 1.7L15.24 1.7C22.68 1.7 28.71 7.73 28.71 15.17L28.71 18.44C28.71 25.88 22.68 31.91 15.24 31.91L15.24 31.91C7.8 31.91 1.77 25.88 1.77 18.44L1.77 15.17Z" />
</svg>