<svg width="18517" height="17593" viewBox="0 0 18517 17593" fill="none" xmlns="http://www.w3.org/2000/svg">
<path d="M18243.1 3810.98C18243.1 5702.99 16704.1 7242.09 14812.1 7242.09C14410.2 7242.09 14027.9 7163.66 13665.2 7036.22L11856.8 8847.06L18090.6 15080.9C18659.1 15649.5 18659.1 16580.8 18090.6 17159.2C17522 17737.6 16590.7 17737.6 16012.4 17159.2L9775.55 10922.2L3548.64 17143.3C2980.07 17721.7 2048.8 17721.7 1470.43 17143.3C892.06 16574.7 892.06 15643.4 1470.43 15065L7695.25 8840L5950.34 7095.04C5568.03 7477.36 4950.45 7477.36 4568.13 7095.04L3881.93 6408.82V8898.82C3881.93 9085.08 3803.51 9261.54 3676.07 9388.98C3401.59 9663.47 2970.27 9663.47 2695.79 9388.98L205.86 6898.98C-68.62 6624.49 -68.62 6193.15 205.86 5918.66C333.297 5781.41 509.749 5712.79 696.003 5712.79H3185.93L2489.93 5016.77C2107.62 4634.44 2107.62 4016.85 2489.93 3634.52L5254.33 860.227C6401.27 -286.742 8263.81 -286.742 9410.75 860.227L7332.54 2938.5L8028.54 3634.52C8410.86 4016.85 8410.86 4634.44 8028.54 5016.77L9773.45 6761.73L11587 4948.15C11459.5 4595.23 11381.1 4212.91 11381.1 3810.98C11381.1 1918.97 12920.2 379.873 14812.1 379.873C15380.7 379.873 15910 536.723 16380.6 781.802L13733.8 3428.66L15194.4 4889.33L17841.2 2242.47C18086.3 2713.03 18243.1 3242.4 18243.1 3810.98Z" fill="black"/>
</svg>
